<?xml version="1.0" encoding="iso-8859-1"?>
<!-- Uploaded to: SVG Repo, www.svgrepo.com, Generator: SVG Repo Mixer Tools -->
<!DOCTYPE svg PUBLIC "-//W3C//DTD SVG 1.1//EN" "http://www.w3.org/Graphics/SVG/1.1/DTD/svg11.dtd">
<svg fill="#000000" height="30px" width="30px" version="1.1" id="Capa_1" xmlns="http://www.w3.org/2000/svg" xmlns:xlink="http://www.w3.org/1999/xlink"
	 viewBox="0 0 275.396 275.396" xml:space="preserve">
<g>
	<path d="M269.831,22.394L252.98,5.543C249.406,1.969,244.635,0,239.546,0c-5.089,0-9.86,1.969-13.434,5.543l-1.726,1.726
		c-3.575,3.575-5.544,8.347-5.544,13.435c0,5.089,1.969,9.86,5.544,13.435l16.851,16.851c3.574,3.574,8.346,5.543,13.434,5.543
		c5.089,0,9.86-1.969,13.435-5.543l1.726-1.726c3.575-3.574,5.544-8.346,5.544-13.435C275.375,30.74,273.406,25.969,269.831,22.394z
		"/>
	<path d="M193.549,45.614c-0.941-0.941-2.197-1.46-3.536-1.46c-1.338,0-2.594,0.519-3.535,1.46L60.702,171.39
		c-1.949,1.949-1.949,5.121,0,7.07l0.522,0.522l-19.519,19.519c-4.247,2.659-18.037,10.966-25.783,11.785
		c-1.835,0.193-3.195,2.417-3.663,3.864l-0.046,0.245c-0.026,0.423-2.708,42.425-11.746,54.96c-0.634,0.88-0.592,2.15,0.125,3.778
		l0.066,0.15l1.348,1.474l0.189,0.085c0.56,0.252,1.411,0.553,2.28,0.553c0.547,0,1.034-0.12,1.446-0.356
		c13.827-7.938,54.691-11.83,55.102-11.868l0.215-0.045c1.354-0.436,3.6-1.808,3.859-3.624c1.229-8.603,12.502-26.938,12.615-27.122
		l0.057-0.104c0.094-0.202,0.167-0.416,0.224-0.635l17.945-17.945l0.977,0.977c0.941,0.941,2.197,1.46,3.536,1.46
		c1.338,0,2.594-0.518,3.535-1.46L229.761,88.897c1.949-1.949,1.949-5.122,0-7.071L193.549,45.614z M45.735,245.504
		c-4.381,4.381-11.483,4.381-15.864,0c-4.381-4.381-4.381-11.483,0-15.864c4.381-4.381,11.483-4.381,15.864,0
		C50.115,234.021,50.115,241.123,45.735,245.504z"/>
</g>
</svg>