<?xml version="1.0" encoding="iso-8859-1"?>
<!-- Uploaded to: SVG Repo, www.svgrepo.com, Generator: SVG Repo Mixer Tools -->
<!DOCTYPE svg PUBLIC "-//W3C//DTD SVG 1.1//EN" "http://www.w3.org/Graphics/SVG/1.1/DTD/svg11.dtd">
<svg fill="#000000" version="1.1" id="Capa_1" xmlns="http://www.w3.org/2000/svg" xmlns:xlink="http://www.w3.org/1999/xlink" 
	 width="800px" height="800px" viewBox="0 0 61.013 61.013"
	 xml:space="preserve">
<g>
	<g>
		<path d="M9.544,32.255c-0.801,0-1.555,0.312-2.121,0.878s-0.879,1.321-0.878,2.121v3.59c-0.001,0.802,0.312,1.555,0.879,2.123
			c0.566,0.565,1.319,0.878,2.121,0.878h1.383c0.489,2.01,1.273,3.908,2.34,5.663l-0.974,0.974c-0.567,0.566-0.88,1.32-0.879,2.123
			c0,0.801,0.313,1.555,0.879,2.12l2.538,2.539c1.134,1.135,3.108,1.133,4.243,0l0.974-0.974c1.753,1.064,3.651,1.85,5.662,2.34
			v1.383c0,1.654,1.346,3,3,3h3.591c1.654,0,3-1.346,3-3V56.64c1.999-0.487,3.897-1.275,5.663-2.35l0.973,0.973
			c1.133,1.133,3.11,1.135,4.243,0l2.539-2.539c0.565-0.567,0.879-1.32,0.879-2.122s-0.313-1.555-0.879-2.121l-0.974-0.974
			c1.074-1.767,1.863-3.664,2.35-5.662h1.372c0.802,0,1.556-0.312,2.122-0.879c0.566-0.567,0.879-1.32,0.878-2.121v-3.59
			c0.001-0.802-0.312-1.556-0.878-2.122s-1.32-0.878-2.122-0.878h-1.382c-0.49-2.012-1.273-3.909-2.34-5.663l0.974-0.974
			c0.565-0.567,0.878-1.32,0.879-2.121c0-0.802-0.313-1.555-0.879-2.121l-2.539-2.54c-1.133-1.133-3.108-1.133-4.241,0l-0.976,0.974
			c-1.259-0.763-2.615-1.378-4.041-1.853v-4.959h2.25c0.383,0,0.731-0.219,0.899-0.563c0.168-0.345,0.123-0.754-0.114-1.055
			L31.662,0.851C31.605,0.488,31.355,0.178,31,0.056c-0.135-0.046-0.273-0.064-0.41-0.052c-0.137-0.012-0.276,0.005-0.41,0.052
			c-0.355,0.123-0.606,0.432-0.662,0.795l-4.935,6.263c-0.214,0.126-0.377,0.33-0.45,0.572l-2.911,3.696
			c-0.237,0.301-0.282,0.71-0.114,1.055C21.275,12.782,21.625,13,22.007,13h2.083v4.951c-1.419,0.475-2.775,1.092-4.041,1.86
			l-0.974-0.974c-1.133-1.135-3.112-1.132-4.242,0l-2.539,2.539c-0.566,0.567-0.879,1.32-0.879,2.122
			c0,0.802,0.313,1.555,0.879,2.121l0.973,0.974c-1.075,1.766-1.863,3.665-2.35,5.663L9.544,32.255L9.544,32.255z M25.09,34.625
			h10.833c0.554,0,1-0.448,1-1v-7.874c4.041,2.292,6.584,6.57,6.584,11.299c0,7.168-5.832,13-13,13s-13-5.832-13-13
			c0-4.729,2.543-9.007,6.583-11.298v7.873C24.09,34.177,24.537,34.625,25.09,34.625z M24.068,11l1.808-2.295
			c0.016-0.019,0.029-0.039,0.043-0.059c0.016-0.017,0.03-0.034,0.044-0.052l4.628-5.873l6.522,8.278h-1.19c-0.554,0-1,0.448-1,1
			v6.683v5.456v8.486H26.09v-8.486v-5.465V12c0-0.552-0.447-1-1-1H24.068z M12.699,33.451c0.463-2.305,1.363-4.473,2.675-6.445
			c0.264-0.396,0.211-0.924-0.126-1.261l-1.54-1.542c-0.189-0.188-0.293-0.439-0.293-0.707s0.104-0.518,0.293-0.707l2.54-2.54
			c0.376-0.376,1.033-0.379,1.413,0l1.54,1.541c0.338,0.337,0.864,0.388,1.261,0.125c1.131-0.752,2.347-1.374,3.628-1.856v3.428
			c-5.236,2.476-8.583,7.727-8.583,13.56c0,8.271,6.729,15,15,15c8.271,0,15-6.729,15-15c0-5.833-3.349-11.084-8.584-13.56v-3.421
			c1.288,0.482,2.504,1.101,3.628,1.849c0.395,0.262,0.923,0.211,1.262-0.125l1.541-1.541c0.377-0.379,1.036-0.377,1.414,0
			l2.538,2.54c0.188,0.188,0.293,0.439,0.293,0.706c0,0.268-0.104,0.519-0.293,0.708l-1.541,1.541
			c-0.337,0.336-0.39,0.864-0.126,1.261c1.299,1.952,2.195,4.121,2.665,6.445c0.095,0.468,0.505,0.803,0.979,0.803h2.186
			c0.268,0,0.52,0.104,0.707,0.292s0.292,0.438,0.292,0.707v3.592c0,0.267-0.104,0.518-0.292,0.706
			c-0.189,0.188-0.439,0.293-0.708,0.293h-2.174c-0.478,0-0.888,0.336-0.979,0.803c-0.463,2.305-1.363,4.473-2.676,6.445
			c-0.264,0.396-0.211,0.924,0.126,1.261l1.541,1.542c0.188,0.188,0.293,0.439,0.293,0.707s-0.104,0.518-0.293,0.707l-2.539,2.539
			c-0.381,0.378-1.036,0.376-1.413,0l-1.541-1.541c-0.339-0.338-0.867-0.389-1.262-0.125c-1.971,1.311-4.141,2.211-6.445,2.674
			c-0.468,0.094-0.804,0.504-0.804,0.98v2.175c0,0.551-0.448,1-1,1h-3.591c-0.552,0-1-0.449-1-1v-2.186
			c0-0.476-0.336-0.886-0.802-0.979c-2.326-0.47-4.495-1.366-6.446-2.665c-0.169-0.112-0.361-0.167-0.554-0.167
			c-0.258,0-0.514,0.1-0.707,0.293l-1.541,1.541c-0.379,0.376-1.037,0.379-1.414,0l-2.54-2.54c-0.188-0.188-0.292-0.439-0.292-0.706
			s0.104-0.518,0.293-0.708l1.541-1.541c0.337-0.337,0.39-0.864,0.126-1.261c-1.301-1.953-2.197-4.122-2.665-6.446
			c-0.095-0.467-0.504-0.802-0.98-0.802H9.545c-0.268,0-0.519-0.104-0.708-0.293c-0.188-0.189-0.292-0.439-0.292-0.707v-3.592
			c0-0.268,0.104-0.518,0.292-0.706c0.189-0.189,0.44-0.293,0.708-0.293h2.174C12.195,34.255,12.606,33.92,12.699,33.451z"/>
	</g>
</g>
</svg>