<?xml version="1.0" encoding="iso-8859-1"?>
<!-- Uploaded to: SVG Repo, www.svgrepo.com, Generator: SVG Repo Mixer Tools -->
<svg fill="#000000" height="800px" width="800px" version="1.1" id="Layer_1" xmlns="http://www.w3.org/2000/svg" xmlns:xlink="http://www.w3.org/1999/xlink" 
	 viewBox="0 0 511.999 511.999" xml:space="preserve">
<g>
	<g>
		<g>
			<path d="M356.419,215.43V102.639c0-6.229-5.05-11.279-11.279-11.279H119.558V65.982c0-4.52-2.698-8.603-6.855-10.376
				s-8.971-0.893-12.232,2.236l-97,93.052C1.253,153.023,0,155.962,0,159.034c0,3.072,1.253,6.013,3.471,8.139l97,93.052
				c2.142,2.055,4.955,3.14,7.811,3.14c1.492,0,2.996-0.296,4.421-0.903c4.157-1.773,6.855-5.856,6.855-10.376v-25.378H345.14
				C351.369,226.709,356.419,221.659,356.419,215.43z M333.861,204.151H108.279C102.05,204.151,97,209.2,97,215.43v10.208
				l-69.428-66.603L97,92.432v10.206c0,6.229,5.05,11.279,11.279,11.279h225.581V204.151z"/>
			<path d="M508.528,344.825l-97-93.052c-3.262-3.129-8.077-4.007-12.232-2.236c-4.157,1.773-6.855,5.856-6.855,10.376v25.378
				H166.859c-6.229,0-11.279,5.05-11.279,11.279v112.791c0,6.229,5.05,11.279,11.279,11.279h225.581v25.378
				c0,4.52,2.698,8.603,6.855,10.376c1.427,0.608,2.93,0.905,4.421,0.904c2.856,0,5.668-1.084,7.811-3.14l97-93.052
				c2.217-2.127,3.471-5.067,3.471-8.139C511.999,349.893,510.746,346.952,508.528,344.825z M415,419.567V409.36
				c0-6.229-5.05-11.279-11.279-11.279H178.139v-90.233h225.581c6.229,0,11.279-5.05,11.279-11.279v-10.208l69.428,66.603
				L415,419.567z"/>
			<path d="M278.131,341.685h-57.523c-6.229,0-11.279,5.05-11.279,11.279s5.05,11.279,11.279,11.279h57.523
				c6.229,0,11.279-5.05,11.279-11.279S284.36,341.685,278.131,341.685z"/>
			<path d="M324.375,341.685h-5.64c-6.229,0-11.279,5.05-11.279,11.279s5.05,11.279,11.279,11.279h5.64
				c6.229,0,11.279-5.05,11.279-11.279S330.604,341.685,324.375,341.685z"/>
			<path d="M239.782,170.313h57.523c6.229,0,11.279-5.05,11.279-11.279c0-6.229-5.05-11.279-11.279-11.279h-57.523
				c-6.229,0-11.279,5.05-11.279,11.279C228.503,165.264,233.552,170.313,239.782,170.313z"/>
			<path d="M193.538,170.313h5.64c6.229,0,11.279-5.05,11.279-11.279c0-6.229-5.05-11.279-11.279-11.279h-5.64
				c-6.229,0-11.279,5.05-11.279,11.279C182.259,165.264,187.308,170.313,193.538,170.313z"/>
		</g>
	</g>
</g>
</svg>